<svg width="305" height="127" viewBox="0 0 305 127" fill="none" xmlns="http://www.w3.org/2000/svg">
<path d="M82.5772 88.4632C79.8073 100.697 74.9023 110.103 67.8622 116.681C60.9375 123.144 50.7812 126.376 37.3935 126.376C32.5462 126.376 27.872 125.857 23.3709 124.818C18.8698 123.779 14.8881 122.106 11.4258 119.798C7.96342 117.374 5.19354 114.258 3.11612 110.449C1.03871 106.641 0 102.024 0 96.5998C0 93.2528 0.230824 90.079 0.692471 87.0783C1.15412 83.9622 1.67347 80.7883 2.25053 77.5568H26.8333C26.2562 80.2113 25.6791 82.808 25.1021 85.3471C24.6404 87.8862 24.4096 90.1367 24.4096 92.0987C24.4096 95.9073 25.7369 98.7926 28.3913 100.755C31.1612 102.717 34.2773 103.698 37.7397 103.698C41.202 103.698 43.9719 103.121 46.0493 101.966C48.2422 100.812 49.9734 99.3119 51.2429 97.4653C52.6278 95.5033 53.6665 93.2528 54.359 90.7138C55.0515 88.0593 55.7439 85.3471 56.4364 82.5772L73.5751 0H100.928L82.5772 88.4632Z" fill="currentColor"/>
<path d="M164.779 69.2471C164.779 66.9389 164.548 64.6884 164.086 62.4955C163.74 60.1873 162.99 58.1099 161.836 56.2633C160.682 54.4167 159.008 52.9741 156.815 51.9354C154.623 50.7812 151.737 50.2042 148.16 50.2042C144.697 50.2042 141.639 50.7235 138.984 51.7622C136.33 52.8009 134.022 54.1859 132.06 55.9171C130.098 57.6482 128.424 59.668 127.039 61.9762C125.77 64.2844 124.673 66.7081 123.75 69.2471H164.779ZM121.153 84.8277C121.038 85.4048 120.98 85.9242 120.98 86.3858C120.98 86.8475 120.98 87.3091 120.98 87.7708V90.0213C120.98 95.2148 122.596 99.4274 125.827 102.659C129.059 105.89 134.022 107.506 140.715 107.506C143.139 107.506 145.274 107.16 147.121 106.467C149.083 105.66 150.756 104.679 152.141 103.524C153.642 102.37 154.911 101.043 155.95 99.5428C157.104 98.0424 158.143 96.5998 159.066 95.2148H183.649C181.687 100.293 179.378 104.736 176.724 108.545C174.07 112.353 170.896 115.585 167.203 118.239C163.509 120.779 159.181 122.683 154.219 123.952C149.371 125.222 143.716 125.857 137.253 125.857C131.252 125.857 125.77 125.049 120.807 123.433C115.96 121.817 111.805 119.394 108.342 116.162C104.88 112.815 102.168 108.718 100.206 103.871C98.3593 99.0234 97.436 93.3682 97.436 86.9052C97.436 79.7496 98.5902 72.8826 100.898 66.3041C103.207 59.6102 106.438 53.7242 110.593 48.6461C114.863 43.4526 120.057 39.3555 126.174 36.3548C132.29 33.2386 139.157 31.6806 146.775 31.6806C153.007 31.6806 158.662 32.4885 163.74 34.1042C168.934 35.72 173.319 38.2013 176.897 41.5483C180.59 44.7798 183.418 48.8769 185.38 53.8396C187.457 58.687 188.496 64.3421 188.496 70.8052C188.496 75.1908 188.034 79.865 187.111 84.8277H121.153Z" fill="currentColor"/>
<path d="M215.742 0H240.325L214.011 123.606H189.601L215.742 0Z" fill="currentColor"/>
<path d="M277.191 20.2548H252.436L256.937 0H281.692L277.191 20.2548ZM249.666 34.1042H274.422L255.379 123.606H230.796L249.666 34.1042Z" fill="currentColor"/>
<path d="M277.357 96.946H304.709L298.997 123.606H271.817L277.357 96.946Z" fill="currentColor"/>
</svg>
